<svg id="Group_1672" data-name="Group 1672" xmlns="http://www.w3.org/2000/svg" width="238.477" height="430.241" viewBox="0 0 238.477 430.241">
  <g id="Group_1665" data-name="Group 1665" transform="translate(0 238.492)">
    <path id="Path_468" data-name="Path 468" d="M1460.136,656.3s-3.823,3.468-4.357-.889-5.424-16.537.889-40.455c0,0,6.846-1.689,8.624-13.426s6.135-23.65-1.867-25.34c-8-1.6-45.078-11.825-45.078-11.825s-12.181-1.778-15.293,4c0,0-7.113,1.156-8.358,4.979a83.491,83.491,0,0,0-2.223,10.669s1.511,5.513,3.645,6.491a10.348,10.348,0,0,0,2.578,8.358s-23.562,42.233-28.629,62.06-13.159,57.17,27.207,84.643,72.374-9.6,76.908-15.382c4.534-5.69,24.362-45.878,12.536-67.039S1460.136,656.3,1460.136,656.3Z" transform="translate(-1365.806 -563.867)" fill="#93a8cc"/>
    <path id="Path_469" data-name="Path 469" d="M1471.812,755.257c-44.011,26.14-91.934-7.38-92.112-7.557a78.66,78.66,0,0,0,19.383,18.227c33.875,23.206,61.971.445,72.729-10.669Z" transform="translate(-1367.347 -584.224)" fill="#718aaf"/>
    <path id="Path_470" data-name="Path 470" d="M1415.819,662.9s-16.182,42.055-2.134,60.371,40.455,9.78,47.479-11.381c1.334-4,4.89-25.162,1.245-35.12,0,0-1.778,49.257-24.806,50.235S1411.729,697.931,1415.819,662.9Z" transform="translate(-1370.479 -574.821)" fill="#718aaf"/>
    <path id="Path_471" data-name="Path 471" d="M1404.046,596.512l-7.824-3.112a10.432,10.432,0,0,0,2.578,8.624s-23.562,42.233-28.629,62.06c-3.112,12.181-7.291,30.852-.889,49.79,0-.178-7.113-43.3,35.031-107.938C1404.313,606.025,1402.89,599.624,1404.046,596.512Z" transform="translate(-1365.82 -567.115)" fill="#718aaf"/>
    <path id="Path_472" data-name="Path 472" d="M1444.367,589.2s1.689-8.447-4.712-10.225-29.874-7.469-32.1-8.269c-.356-.089-1.156-.356-2.223-.711-2.223.622-5.512,1.956-6.313,4.446a83.508,83.508,0,0,0-2.223,10.669s1.511,5.513,3.645,6.491c0,0,25.428,8.98,34.764,9.069C1444.634,600.585,1444.367,589.2,1444.367,589.2Z" transform="translate(-1369.243 -564.52)" fill="#fffeff"/>
    <path id="Path_473" data-name="Path 473" d="M1459.922,632.783s-33.875-12.359-42.322-20.983c0,0,34.142,7.291,44.1,11.2Z" transform="translate(-1371.549 -569.155)" fill="#577496"/>
    <path id="Path_474" data-name="Path 474" d="M1465.67,575.362l-44.9-11.47c-11.825-.711-13.87,5.513-13.87,5.513l8.269,2.312c.178-3.556,6.224-5.779,6.224-5.779l40.1,10.225c1.334,6.313.8,7.646-1.511,18.76-2.312,11.2-7.469,14.4-8.091,16.182s1.067,4.09,1.067,4.09l7.557,2.49c.178-.622.444-2.223.533-2.756,0,0,6.846-1.689,8.624-13.426s6.4-23.917-1.512-25.518C1467.626,575.807,1466.56,575.629,1465.67,575.362Z" transform="translate(-1370.363 -563.836)" fill="#718aaf"/>
    <path id="Path_475" data-name="Path 475" d="M1420.085,693.792s2.134,23.917,6.579,20.627,5.779-8.536,5.779-19.916.622-27.385-2.045-28.452-8.269-.267-8.891,6.49C1420.885,679.21,1419.551,689.346,1420.085,693.792Z" transform="translate(-1371.811 -575.127)" fill="#b8c7d8"/>
    <path id="Path_476" data-name="Path 476" d="M1397.256,584.5c-.178,1.334-.356,2.223-.356,2.223s1.511,5.513,3.645,6.491c0,0,25.429,8.98,34.764,9.069a8.011,8.011,0,0,0,7.735-4.89Z" transform="translate(-1369.254 -566.128)" fill="#e7e9e8"/>
  </g>
  <g id="Group_1666" data-name="Group 1666" transform="translate(114.034 169.94)">
    <path id="Path_477" data-name="Path 477" d="M1553.962,489.668s7.024-2.312,11.114,6.846c4.09,9.247,12.8,32.808,10.758,38.321l3.29,11.025s56.1,28.807,35.031,77.442c0,0-5.779,7.824-12.359,3.734,0,0,4.268,16.715-15.382,28.1s-45.7,12-60.1,9.514-19.383-6.579-23.917-27.651-7.824-68.284,0-83.221c0,0,0-6.135-.8-7.824-.8-1.778-4.89-23.206-3.912-28.985s.178-17.16,17.516-20.361S1543.648,489.668,1553.962,489.668Z" transform="translate(-1494.446 -487.031)" fill="#93a8cc"/>
    <path id="Path_478" data-name="Path 478" d="M1604.222,640.442s-18.138-33.431-48.723-24.717-35.12,16.982-34.675,38.765c0,0-14.4-37.165,30.141-43.3C1595.508,604.966,1600.932,633.418,1604.222,640.442Z" transform="translate(-1496.782 -500.437)" fill="#718aaf"/>
    <path id="Path_479" data-name="Path 479" d="M1599.166,615.632S1585.3,591.538,1586.1,575c0,0,.178,34.053,9.513,40.632C1604.856,622.212,1599.166,615.632,1599.166,615.632Z" transform="translate(-1504.263 -496.522)" fill="#718aaf"/>
    <path id="Path_480" data-name="Path 480" d="M1626.1,600.52s-5.6-18.849-8.713-15.471c-3.023,3.468-3.2,7.824-1.334,16.982s4,22.05,6.313,22.495,6.668-1.156,6.135-6.668C1627.874,612.256,1627.252,603.987,1626.1,600.52Z" transform="translate(-1507.454 -497.591)" fill="#b8c7d8"/>
    <path id="Path_481" data-name="Path 481" d="M1558.328,487.593l-52.635,10.758c-12.625,5.424-8.091,18.316-8.091,18.316l7.824-1.6c-1.689-4.179,2.845-12.714,2.845-12.714l47.39-9.78c4.712,6.491,3.645,6.491,7.291,20.45s0,20.45.356,22.761,3.378,4.179,3.378,4.179l9.158-1.245c-.178-.8-.711-2.756-.889-3.468,0,0,6.135-5.6,1.689-19.916-4.446-14.4-6.224-30.763-15.293-28.363A14.092,14.092,0,0,0,1558.328,487.593Z" transform="translate(-1494.366 -486.734)" fill="#718aaf"/>
    <path id="Path_482" data-name="Path 482" d="M1542.552,519.666s-2.134-8.535-8.8-7.38-30.852,6.046-33.342,6.4a23.609,23.609,0,0,1-2.4.267c-1.778,1.512-4.268,4.268-3.912,6.846a88.292,88.292,0,0,0,2.667,10.847s3.823,4.446,6.224,4.357c0,0,27.385-2.756,36.1-6.846C1547.8,530.158,1542.552,519.666,1542.552,519.666Z" transform="translate(-1494.062 -489.556)" fill="#fffeff"/>
    <path id="Path_483" data-name="Path 483" d="M1496.5,536.18a21.561,21.561,0,0,0,.711,2.223s3.823,4.446,6.224,4.357c0,0,27.385-2.756,36.1-6.846A8.412,8.412,0,0,0,1544.6,528Z" transform="translate(-1494.332 -491.31)" fill="#e7e9e8"/>
    <path id="Path_484" data-name="Path 484" d="M1581.135,546.559a9.549,9.549,0,0,0-1.867-6.135c-2.045-2.49-40.01,3.023-50.768,9.958C1528.589,550.471,1536.324,553.494,1581.135,546.559Z" transform="translate(-1497.88 -492.62)" fill="#577496"/>
    <path id="Path_485" data-name="Path 485" d="M1501.912,551.2c.8,1.778.8,7.824.8,7.824-7.824,14.937-4.534,62.149,0,83.221,4,18.671,8.358,24.006,19.383,26.762-5.246-1.511-6.935-6.579-11.381-14.937-4.8-8.98-5.157-34.32-5.779-56.9s3.379-34.675,5.246-39.3-2.134-14.048-2.134-14.048l-8.269-2.223C1500.756,546.49,1501.645,550.491,1501.912,551.2Z" transform="translate(-1494.498 -492.818)" fill="#718aaf"/>
  </g>
  <ellipse id="Ellipse_459" data-name="Ellipse 459" cx="8.447" cy="8.447" rx="8.447" ry="8.447" transform="translate(97.086 0)" fill="#93a8cc"/>
  <line id="Line_178" data-name="Line 178" y1="227.346" x2="41.611" transform="translate(60.721 15.737)" fill="#93a8cc" stroke="#93a8cc" stroke-miterlimit="10" stroke-width="1"/>
  <line id="Line_179" data-name="Line 179" x2="33.075" y2="162.352" transform="translate(108.644 15.737)" fill="#93a8cc" stroke="#93a8cc" stroke-miterlimit="10" stroke-width="1"/>
  <line id="Line_180" data-name="Line 180" x1="16.538" y2="244.862" transform="translate(87.928 3.645)" fill="#93a8cc" stroke="#93a8cc" stroke-miterlimit="10" stroke-width="1"/>
  <line id="Line_181" data-name="Line 181" x2="58.415" y2="169.376" transform="translate(108.644 3.645)" fill="#93a8cc" stroke="#93a8cc" stroke-miterlimit="10" stroke-width="1"/>
</svg>
