<svg xmlns="http://www.w3.org/2000/svg" width="194.603" height="389.1" viewBox="0 0 194.603 389.1">
  <g id="munt" transform="translate(-5065.5 -11490.63)">
    <path id="Subtraction_24" data-name="Subtraction 24" d="M0,389.1H0V0A195.986,195.986,0,0,1,39.21,3.953,193.569,193.569,0,0,1,75.728,15.289a194.568,194.568,0,0,1,33.047,17.937,195.954,195.954,0,0,1,28.793,23.756,195.956,195.956,0,0,1,23.756,28.793,194.571,194.571,0,0,1,17.937,33.047A193.572,193.572,0,0,1,190.6,155.342a195.986,195.986,0,0,1,3.953,39.209,195.986,195.986,0,0,1-3.953,39.209,193.571,193.571,0,0,1-11.336,36.519,194.559,194.559,0,0,1-17.937,33.047,195.952,195.952,0,0,1-23.756,28.793,195.951,195.951,0,0,1-28.793,23.756,194.56,194.56,0,0,1-33.047,17.937A193.571,193.571,0,0,1,39.21,385.148,195.99,195.99,0,0,1,0,389.1Z" transform="translate(5065.553 11490.63)" fill="#ffc46c"/>
    <path id="Intersection_30" data-name="Intersection 30" d="M0,0A170.984,170.984,0,0,1,170.482,170.983,170.983,170.983,0,0,1,0,341.966Z" transform="translate(5065.554 11513.695)" fill="#f3b352"/>
    <path id="Subtraction_25" data-name="Subtraction 25" d="M59.295,222.038h0l-57.587-56.4L0,167.549V28.374l1.707,2.5L40.89,0,30.8,55.807,83.042,40.964,59.295,83.71l94.4,11.28L52.764,117.55l30.278,44.526L44.453,148.421l14.842,73.617h0Z" transform="translate(5065.5 11583.815)" fill="#fff"/>
  </g>
</svg>
